<svg version="1.1" id="Layer_1" xmlns="http://www.w3.org/2000/svg" xmlns:xlink="http://www.w3.org/1999/xlink" x="0px" y="0px"
	 width="100%" viewBox="0 0 352 400" enable-background="new 0 0 352 400" xml:space="preserve">
<path fill="#000000" opacity="1.000000" stroke="none" 
	d="
M104.343063,385.054993 
	C101.925949,385.208954 99.926094,385.385132 97.932076,385.333832 
	C93.241241,385.213257 91.088081,382.323853 90.602379,378.041595 
	C89.967285,372.442261 91.841156,369.459778 94.226181,368.846466 
	C103.781052,356.475555 105.558105,342.457336 111.732269,330.105591 
	C117.973183,317.620361 122.970535,304.513550 128.692383,291.262756 
	C122.715836,288.271362 116.502609,287.157928 110.535797,285.418732 
	C94.879578,280.855225 79.192917,276.387878 63.450188,272.134613 
	C58.908112,270.907471 57.613667,268.966827 59.025299,264.308441 
	C63.415905,249.819412 67.448494,235.221558 71.583946,220.655701 
	C73.522324,213.828369 73.628647,213.734375 80.500412,215.491089 
	C87.675056,217.325226 87.675056,217.325241 89.660378,211.113190 
	C83.308868,208.764359 76.604332,207.424576 70.320244,204.785461 
	C65.821014,202.895935 64.119354,200.906845 65.414536,195.485291 
	C69.461800,178.543762 68.091553,161.450043 65.240593,144.430527 
	C62.624367,128.812256 60.146767,113.159241 63.743160,97.360016 
	C67.733925,79.828308 77.470154,66.536812 93.337715,57.850437 
	C97.400467,55.626354 101.886719,55.264790 105.667030,54.219158 
	C113.186935,48.062645 119.829903,41.379696 120.961823,30.809868 
	C121.006287,30.873922 120.787109,30.421549 120.448105,30.092718 
	C118.662758,28.360939 114.776901,27.568321 116.214249,24.262945 
	C117.501755,21.302118 121.059761,22.464308 123.482811,22.791670 
	C136.580505,24.561207 149.047592,28.808270 161.446579,33.180065 
	C167.484802,35.309097 174.254059,36.104671 178.606735,41.691208 
	C179.220154,42.478542 179.914413,43.204659 180.503632,44.008663 
	C181.223740,44.991257 181.670166,46.119221 181.018066,47.268566 
	C180.332825,48.476353 179.047836,48.336597 177.890442,48.293903 
	C177.230377,48.269550 176.508881,48.247311 175.928970,47.978420 
	C171.596512,45.969551 168.707184,47.200756 166.997025,51.654716 
	C166.599335,52.690491 165.649811,53.514385 164.838425,54.589127 
	C162.474106,53.869141 161.655182,51.916550 160.315002,50.502167 
	C162.146149,47.956570 165.844269,49.579250 166.835541,46.157150 
	C164.690369,43.794106 161.399979,43.555889 158.502823,42.638306 
	C156.206268,41.910950 155.160950,43.765644 154.616333,45.568130 
	C154.190475,46.977547 154.342758,48.551823 154.028580,50.007610 
	C153.724594,51.416138 153.559387,53.290169 151.528229,53.152706 
	C149.796951,53.035542 149.623093,51.412739 149.716492,50.080978 
	C149.999542,46.044872 145.501404,44.200897 145.355957,40.304371 
	C145.320786,39.362068 143.826920,39.164326 142.794785,39.306740 
	C140.923935,39.564880 139.940750,40.787285 139.367538,42.506680 
	C138.452667,45.251003 139.134094,48.112957 138.758850,51.129353 
	C137.060471,52.060284 134.921234,51.365559 133.220688,53.182224 
	C130.997543,55.557190 128.705505,53.315430 126.758171,51.699539 
	C124.939537,50.190449 123.677818,47.542625 119.688599,48.800560 
	C123.478477,53.323997 126.872223,57.703186 130.614365,61.761086 
	C135.732162,67.310738 138.324509,73.687935 138.210968,81.235474 
	C138.189011,82.694260 138.353806,84.317215 138.977493,85.599319 
	C144.987198,97.953491 149.596024,110.710136 150.271210,124.510925 
	C152.954712,125.081444 154.408020,123.440773 156.068298,122.489830 
	C167.188828,116.120514 177.561981,108.490921 189.247467,103.061577 
	C196.779312,99.562103 202.740860,100.698204 209.165512,106.469276 
	C224.683258,120.408401 242.023834,132.031418 259.503296,143.381958 
	C262.722961,145.472717 266.250183,146.991196 270.066315,147.757370 
	C273.567139,148.460236 274.427368,150.609634 272.847412,153.637024 
	C270.999146,157.178497 268.936188,160.607910 266.697693,164.560364 
	C268.736298,164.523254 270.333466,164.895432 270.716187,167.262390 
	C271.248108,170.552261 274.164215,171.030640 276.804657,171.431168 
	C279.753937,171.878555 280.090240,169.570068 280.918121,167.471466 
	C282.415558,163.675674 285.739532,164.586624 288.649506,165.172638 
	C299.089264,167.274994 308.142517,165.071960 315.386902,156.910049 
	C316.351227,155.823593 316.964417,154.287933 318.729767,154.183517 
	C321.691711,158.806671 319.879456,167.080475 314.710175,171.973816 
	C310.138275,176.301666 304.585571,179.134048 298.647308,180.828705 
	C292.179504,182.674484 287.818207,186.358124 285.405579,192.569382 
	C284.684662,194.425278 283.693176,196.182449 282.750763,197.944794 
	C278.957397,205.038635 272.813080,205.510498 267.957092,199.101547 
	C263.909607,193.759674 264.439026,190.884430 269.997253,187.770432 
	C270.674957,187.390732 271.234375,186.799820 271.878998,186.282379 
	C271.463257,185.886276 271.161987,185.471909 271.056366,185.516907 
	C265.908661,187.709595 262.690735,186.070099 258.892151,181.763901 
	C250.224106,171.937500 238.998413,165.137650 227.497467,159.001190 
	C217.783112,153.817963 208.135178,148.597824 199.535995,141.614944 
	C194.318893,137.378448 192.585953,137.492615 187.590897,142.428284 
	C176.806595,153.084351 166.338486,164.065750 154.816452,173.953323 
	C153.300583,175.254150 151.904907,176.852524 150.155823,177.694702 
	C144.798599,180.274231 144.568954,183.978821 146.393875,189.116776 
	C154.584351,212.176498 162.278946,235.414032 170.623947,258.416382 
	C173.952164,267.590302 173.200302,275.612823 168.504471,284.149384 
	C157.898895,303.429138 158.142792,303.572906 164.608032,328.355743 
	C166.624313,336.084656 169.207947,343.702393 170.656097,351.532959 
	C172.290253,360.369385 173.854553,369.235046 176.099442,378.082520 
	C173.314255,378.363434 173.256805,376.708618 172.817978,375.606262 
	C166.432190,359.564575 160.579315,343.346985 156.491470,326.534668 
	C155.919266,324.181274 155.669891,321.609955 153.507477,319.212982 
	C149.385742,329.487762 145.436569,339.473328 143.410324,350.071533 
	C142.102661,356.911194 142.320633,356.975769 135.698349,356.435181 
	C130.250031,355.990417 124.806793,355.483826 119.321327,355.001129 
	C129.934280,367.755219 140.511932,380.479736 156.509949,386.374481 
	C155.850250,389.217560 154.244247,389.196564 152.783676,389.393280 
	C143.670395,390.620483 134.533539,391.142273 125.455322,389.325226 
	C121.389877,388.511505 117.284340,387.465607 115.916664,382.521088 
	C115.330536,380.402039 113.571762,380.456482 111.848137,381.331696 
	C109.480415,382.533936 107.124153,383.758728 104.343063,385.054993 
M129.517700,191.471252 
	C126.348625,194.110428 123.760849,196.893768 125.134171,201.619278 
	C125.790413,203.877365 123.952957,204.892868 122.061073,205.343262 
	C118.656395,206.153793 118.718826,208.259415 120.325233,210.478027 
	C121.351379,211.895248 121.796257,213.874954 123.742050,214.675980 
	C126.121048,212.762054 129.054062,211.889389 131.915359,211.342590 
	C135.341522,210.687881 135.775940,208.507309 135.417450,205.940292 
	C134.869568,202.016953 134.045334,198.121643 133.118896,194.267212 
	C132.774139,192.832855 132.662308,190.683380 129.517700,191.471252 
M119.656494,225.568008 
	C115.437172,221.369339 111.195862,217.192429 107.009628,212.961014 
	C105.387459,211.321350 103.571838,211.032562 101.577141,211.975723 
	C99.004982,213.191925 96.514473,214.615509 95.551941,217.530228 
	C94.990143,219.231400 96.338203,220.057358 97.633690,220.330444 
	C105.045677,221.892807 111.951668,225.388748 119.656494,225.568008 
z"/>
<path fill="#000000" opacity="1.000000" stroke="none" 
	d="
M153.996490,9.848661 
	C158.245438,12.197937 162.173416,14.346908 166.040512,16.600361 
	C167.465073,17.430489 168.947372,18.319803 170.052826,19.508184 
	C172.843430,22.508112 174.074142,26.657957 172.572311,30.043747 
	C171.080948,33.405926 167.481354,30.542917 165.037872,29.978115 
	C154.878922,27.629921 144.830902,24.806017 134.695526,22.349236 
	C131.186615,21.498690 130.358917,20.191975 132.191391,16.859919 
	C137.942627,6.402225 142.773346,4.702979 153.996490,9.848661 
z"/>
<path fill="#000000" opacity="1.000000" stroke="none" 
	d="
M135.000534,62.617638 
	C138.235458,60.864475 141.142014,62.090164 143.361725,63.969990 
	C147.219528,67.237106 150.263092,71.472710 155.869095,73.115509 
	C150.970032,76.034698 141.842209,71.216621 135.000534,62.617638 
z"/>
</svg>